<?xml version="1.0" encoding="utf-8"?>
<!-- Generator: Adobe Illustrator 26.0.2, SVG Export Plug-In . SVG Version: 6.00 Build 0)  -->
<svg version="1.1" id="Layer_1" xmlns="http://www.w3.org/2000/svg" xmlns:xlink="http://www.w3.org/1999/xlink" x="0px" y="0px"
	 viewBox="0 0 606.28 250.28" style="enable-background:new 0 0 606.28 250.28;" xml:space="preserve">
<style type="text/css">
	.st0{fill:#888B8D;}
	.st1{fill:#F4B223;}
	.st2{fill:#BC4700;}
</style>
<g>
	<path class="st0" d="M431.35,196.76c2.54,0,3.29-1.51,4.43-4.94l4.29-12.8H438l-3.38,10.83l-3.54-10.83h-2.24l4.51,12.77h0.51
		c-0.84,2.54-1.3,3.32-2.78,3.32c-0.7,0-1.35-0.08-2-0.35h-0.08l0.11,1.59C429.55,196.58,430.41,196.76,431.35,196.76
		 M420.74,179.03v12.83h2.03v-7.56c0-1.57,1.19-3.54,3.62-3.54c0.46,0,1,0.05,1.54,0.22h0.11l-0.22-2c-0.51-0.13-1-0.22-1.43-0.22
		c-1.97,0-3.24,1.4-3.7,2.65l-0.03-0.03l-0.11-2.35H420.74z M411.1,190.45c-2.43,0-3.97-1.38-3.97-4.99c0-3.48,1.7-5.02,4.05-5.02
		c2.75,0,3.92,1.73,3.92,4.99C415.1,188.8,413.56,190.45,411.1,190.45 M410.97,192.12c4.4,0,6.26-2.97,6.26-6.86
		c0-3.73-1.62-6.51-5.86-6.51c-4.1,0-6.35,2.65-6.35,6.75C405.03,189.12,406.6,192.12,410.97,192.12 M400.63,192.12
		c0.76,0,2.02-0.22,2.62-0.51l0.19-1.62h-0.11c-0.76,0.24-1.57,0.43-2.27,0.43c-1.38,0-1.86-0.41-1.86-2.16v-7.67h3.73l-0.16-1.57
		h-3.56v-4.08l-2.02,0.54v3.54h-2.3v1.57h2.3v8.1C397.17,190.74,397.93,192.12,400.63,192.12 M386.59,190.55
		c-1.54,0-2.54-0.49-2.54-2.16c0-1.49,1.03-2.38,3.48-2.48l2.7-0.11v1.86C390.23,189.2,388.83,190.55,386.59,190.55 M386.08,192.12
		c1.94,0,3.56-0.76,4.4-2.05c0.08,1.22,0.73,2,1.94,2c0.68,0,1.32-0.13,1.65-0.27l0.11-1.46c-0.32,0.11-0.76,0.16-1.03,0.16
		c-0.7,0-0.89-0.35-0.89-1.46v-6.18c0-3.46-2.21-4.1-4.75-4.1c-1.21,0-3.08,0.27-4.16,0.59l-0.14,1.7h0.11
		c1.08-0.35,2.81-0.62,3.83-0.62c1.62,0,3.05,0.19,3.05,2.54v1.38l-2.78,0.14c-3.35,0.19-5.45,1.19-5.45,4.02
		C381.97,190.8,383.38,192.12,386.08,192.12 M373.79,179.03v12.83h2.02v-7.56c0-1.57,1.19-3.54,3.62-3.54c0.46,0,1,0.05,1.54,0.22
		h0.11l-0.22-2c-0.51-0.13-1-0.22-1.43-0.22c-1.97,0-3.24,1.4-3.7,2.65l-0.03-0.03l-0.11-2.35H373.79z M364.15,190.45
		c-2.43,0-3.97-1.38-3.97-4.99c0-3.48,1.7-5.02,4.05-5.02c2.75,0,3.91,1.73,3.91,4.99C368.15,188.8,366.61,190.45,364.15,190.45
		 M364.02,192.12c4.4,0,6.26-2.97,6.26-6.86c0-3.73-1.62-6.51-5.86-6.51c-4.1,0-6.35,2.65-6.35,6.75
		C358.08,189.12,359.64,192.12,364.02,192.12 M349.25,190.42c-1.54,0-2.75-0.89-3.38-1.65v-5.02c0-2.05,1.54-3.35,3.7-3.35
		c2.89,0,3.78,2.27,3.78,4.73C353.35,188.18,352.11,190.42,349.25,190.42 M349.52,192.12c3.62,0,5.91-2.54,5.91-7.1
		c0-4.48-2.46-6.26-5.29-6.26c-2.13,0-3.51,0.78-4.21,1.94l-0.05-0.05v-8.21h-2v19.41h1.73l0.14-1.35
		C346.49,191.45,347.95,192.12,349.52,192.12 M333.64,190.55c-1.54,0-2.54-0.49-2.54-2.16c0-1.49,1.03-2.38,3.48-2.48l2.7-0.11v1.86
		C337.29,189.2,335.88,190.55,333.64,190.55 M333.13,192.12c1.94,0,3.56-0.76,4.4-2.05c0.08,1.22,0.73,2,1.94,2
		c0.67,0,1.32-0.13,1.65-0.27l0.11-1.46c-0.32,0.11-0.76,0.16-1.03,0.16c-0.7,0-0.89-0.35-0.89-1.46v-6.18c0-3.46-2.21-4.1-4.75-4.1
		c-1.21,0-3.08,0.27-4.16,0.59l-0.13,1.7h0.11c1.08-0.35,2.81-0.62,3.83-0.62c1.62,0,3.05,0.19,3.05,2.54v1.38l-2.78,0.14
		c-3.35,0.19-5.45,1.19-5.45,4.02C329.03,190.8,330.43,192.12,333.13,192.12 M315.88,172.44v19.41h10.91v-1.76h-8.8v-17.66H315.88z"
		/>
	<path class="st0" d="M553.11,154.32h-7.05c0.19-3.24,2.19-4,3.81-4C552.46,150.32,553.08,152.02,553.11,154.32 M550.22,162.12
		c1.65,0,3.32-0.4,4.21-0.86l0.19-1.76h-0.11c-0.97,0.54-2.81,0.92-4.08,0.92c-3.1,0-4.35-1.7-4.4-4.62h9.05v-1.05
		c0-3.94-1.54-5.99-5.18-5.99c-3.59,0-5.97,2.32-5.97,6.64C543.93,159.83,545.98,162.12,550.22,162.12 M537.88,162.12
		c1.19,0,2.81-0.27,3.7-0.73l0.14-1.7h-0.08c-1.11,0.49-2.16,0.73-3.56,0.73c-2.86,0-4.18-1.81-4.18-5.05
		c0-3.43,1.54-4.94,4.16-4.94c1.08,0,2.35,0.22,3.46,0.68h0.08l-0.16-1.76c-0.86-0.35-2.3-0.59-3.46-0.59
		c-4.21,0-6.13,2.67-6.13,6.64C531.83,159.15,533.34,162.12,537.88,162.12 M517.47,149.03v12.83h2.02v-8.05
		c0-1.86,1.3-3.35,3.75-3.35c2.16,0,3.13,1.08,3.13,3.43v7.97h2.02v-8.18c0-3.43-1.84-4.91-4.67-4.91c-2.29,0-3.7,1.03-4.29,2.16
		l-0.03-0.03l-0.08-1.86H517.47z M512.07,154.32h-7.05c0.19-3.24,2.19-4,3.81-4C511.42,150.32,512.04,152.02,512.07,154.32
		 M509.18,162.12c1.65,0,3.32-0.4,4.21-0.86l0.19-1.76h-0.11c-0.97,0.54-2.81,0.92-4.08,0.92c-3.11,0-4.35-1.7-4.4-4.62h9.04v-1.05
		c0-3.94-1.54-5.99-5.18-5.99c-3.59,0-5.97,2.32-5.97,6.64C502.89,159.83,504.94,162.12,509.18,162.12 M493.84,160.34
		c-2.51,0-3.81-1.7-3.81-4.81c0-3.83,1.86-5.1,3.97-5.1c1.48,0,2.67,0.59,3.46,1.51v5.16C497.46,158.93,496,160.34,493.84,160.34
		 M493.76,166.76c3.11,0,5.72-1.27,5.72-5.29v-12.45h-1.81l-0.11,1.16c-0.81-0.78-2.05-1.43-3.81-1.43c-3.89,0-5.83,3.16-5.83,6.67
		c0,4.67,2.21,6.56,5.59,6.56c2.13,0,3.38-1.05,3.89-1.92l0.05,0.03v1.43c0,2.4-1.13,3.59-3.97,3.59c-1.51,0-3.35-0.49-4.43-0.92
		h-0.08l0.22,1.78C490.28,166.41,492.12,166.76,493.76,166.76 M483.23,145.95c0.86,0,1.32-0.51,1.32-1.46
		c0-0.97-0.46-1.49-1.32-1.49c-0.84,0-1.32,0.51-1.32,1.49C481.91,145.43,482.37,145.95,483.23,145.95 M482.61,150.67v11.18h2
		v-12.83h-4v1.65H482.61z M475.7,144.11v17.74h2v-19.41h-3.81v1.67H475.7z M469.3,144.11v17.74h2v-19.41h-3.81v1.67H469.3z
		 M463.87,154.32h-7.05c0.19-3.24,2.19-4,3.81-4C463.23,150.32,463.85,152.02,463.87,154.32 M460.99,162.12
		c1.65,0,3.32-0.4,4.21-0.86l0.19-1.76h-0.11c-0.97,0.54-2.81,0.92-4.08,0.92c-3.11,0-4.35-1.7-4.4-4.62h9.04v-1.05
		c0-3.94-1.54-5.99-5.18-5.99c-3.59,0-5.97,2.32-5.97,6.64C454.69,159.83,456.75,162.12,460.99,162.12 M450.29,162.12
		c0.76,0,2.02-0.22,2.62-0.51l0.19-1.62h-0.11c-0.76,0.24-1.57,0.43-2.27,0.43c-1.38,0-1.86-0.41-1.86-2.16v-7.67h3.73l-0.16-1.57
		h-3.56v-4.08l-2.02,0.54v3.54h-2.3v1.57h2.3v8.1C446.84,160.74,447.59,162.12,450.29,162.12 M431.18,149.03v12.83h2.02v-8.05
		c0-1.86,1.3-3.35,3.75-3.35c2.16,0,3.13,1.08,3.13,3.43v7.97h2.02v-8.18c0-3.43-1.84-4.91-4.67-4.91c-2.3,0-3.7,1.03-4.29,2.16
		l-0.03-0.03l-0.08-1.86H431.18z M417.62,160.07v1.78h9.61v-1.78h-3.75v-15.85h3.75v-1.78h-9.61v1.78h3.75v15.85H417.62z
		 M406.37,144.11v17.74h2v-19.41h-3.81v1.67H406.37z M396.13,160.55c-1.54,0-2.54-0.49-2.54-2.16c0-1.49,1.03-2.38,3.48-2.48
		l2.7-0.11v1.86C399.78,159.2,398.37,160.55,396.13,160.55 M395.62,162.12c1.94,0,3.56-0.76,4.4-2.05c0.08,1.22,0.73,2,1.94,2
		c0.68,0,1.32-0.13,1.65-0.27l0.11-1.46c-0.32,0.11-0.76,0.16-1.03,0.16c-0.7,0-0.89-0.35-0.89-1.46v-6.18c0-3.46-2.21-4.1-4.75-4.1
		c-1.22,0-3.08,0.27-4.16,0.59l-0.14,1.7h0.11c1.08-0.35,2.81-0.62,3.83-0.62c1.62,0,3.05,0.19,3.05,2.54v1.38l-2.78,0.14
		c-3.35,0.19-5.45,1.19-5.45,4.02C391.52,160.8,392.92,162.12,395.62,162.12 M386.98,145.95c0.86,0,1.32-0.51,1.32-1.46
		c0-0.97-0.46-1.49-1.32-1.49c-0.84,0-1.32,0.51-1.32,1.49C385.66,145.43,386.12,145.95,386.98,145.95 M386.36,150.67v11.18h2
		v-12.83h-4v1.65H386.36z M378.91,162.12c1.19,0,2.81-0.27,3.7-0.73l0.13-1.7h-0.08c-1.11,0.49-2.16,0.73-3.56,0.73
		c-2.86,0-4.18-1.81-4.18-5.05c0-3.43,1.54-4.94,4.16-4.94c1.08,0,2.35,0.22,3.46,0.68h0.08l-0.16-1.76
		c-0.86-0.35-2.29-0.59-3.46-0.59c-4.21,0-6.13,2.67-6.13,6.64C372.86,159.15,374.37,162.12,378.91,162.12 M368.22,145.95
		c0.86,0,1.32-0.51,1.32-1.46c0-0.97-0.46-1.49-1.32-1.49c-0.84,0-1.3,0.51-1.3,1.49C366.92,145.43,367.35,145.95,368.22,145.95
		 M358.71,150.59v11.26h2v-11.26h6.51v11.26h2.02v-12.83h-8.53v-2.73c0-1.62,0.62-2.32,2.05-2.32c0.59,0,1.08,0.05,1.94,0.32h0.08
		l-0.14-1.7c-0.57-0.19-1.38-0.35-2.21-0.35c-1.86,0-3.73,0.81-3.73,3.7v3.08h-2.11v1.57H358.71z M352.56,145.95
		c0.86,0,1.32-0.51,1.32-1.46c0-0.97-0.46-1.49-1.32-1.49c-0.84,0-1.32,0.51-1.32,1.49C351.23,145.43,351.69,145.95,352.56,145.95
		 M351.93,150.67v11.18h2v-12.83h-4v1.65H351.93z M345.99,162.12c0.76,0,2.03-0.22,2.62-0.51l0.19-1.62h-0.11
		c-0.76,0.24-1.57,0.43-2.27,0.43c-1.38,0-1.86-0.41-1.86-2.16v-7.67h3.73l-0.16-1.57h-3.56v-4.08l-2.02,0.54v3.54h-2.29v1.57h2.29
		v8.1C342.54,160.74,343.29,162.12,345.99,162.12 M332.22,149.03v12.83h2.02v-7.56c0-1.57,1.19-3.54,3.62-3.54
		c0.46,0,1,0.05,1.54,0.22h0.11l-0.22-2c-0.51-0.13-1-0.22-1.43-0.22c-1.97,0-3.24,1.4-3.7,2.65l-0.03-0.03l-0.11-2.35H332.22z
		 M324.83,154.53h-6.91l3.46-10.1L324.83,154.53z M320.21,142.44l-6.89,19.41h2.19l1.89-5.62h7.94l1.92,5.62h2.21l-6.89-19.41
		H320.21z"/>
	<path class="st0" d="M536.71,132.12c5.64,0,8.02-2.7,8.02-7.24v-2.92h2.73l-0.22-1.7h-2.59l-0.19-2.08h-1.78v6.16
		c0,3.48-1,5.97-5.7,5.97c-3,0-5.21-1.4-5.21-4.08c0-2.86,2.48-4.27,5.4-4.27h2.43l-0.24-1.7h-2.08c-2.43,0-4.48-1.21-4.48-3.29
		c0-2.27,1.59-3.08,3.73-3.08c1.19,0,2.67,0.16,4.32,0.94h0.11l-0.22-1.86c-0.97-0.43-2.78-0.81-4.24-0.81
		c-3.91,0-5.75,2.19-5.75,4.62c0,2.21,1.38,3.67,3.51,4.27c-2.27,0.38-4.51,2.16-4.51,5.18
		C529.74,130.2,532.68,132.12,536.71,132.12 M519.37,124.32h-7.05c0.19-3.24,2.19-4,3.81-4
		C518.72,120.32,519.35,122.02,519.37,124.32 M516.48,132.12c1.65,0,3.32-0.4,4.21-0.86l0.19-1.75h-0.11
		c-0.97,0.54-2.81,0.92-4.08,0.92c-3.11,0-4.35-1.7-4.4-4.62h9.04v-1.05c0-3.94-1.54-5.99-5.18-5.99c-3.59,0-5.97,2.32-5.97,6.64
		C510.19,129.83,512.24,132.12,516.48,132.12 M504.14,132.12c1.19,0,2.81-0.27,3.7-0.73l0.14-1.7h-0.08
		c-1.11,0.49-2.16,0.73-3.56,0.73c-2.86,0-4.18-1.81-4.18-5.05c0-3.43,1.54-4.94,4.16-4.94c1.08,0,2.35,0.22,3.46,0.67h0.08
		l-0.16-1.75c-0.86-0.35-2.3-0.59-3.46-0.59c-4.21,0-6.13,2.67-6.13,6.64C498.1,129.15,499.61,132.12,504.14,132.12 M483.73,119.03
		v12.82h2.02v-8.05c0-1.86,1.3-3.35,3.75-3.35c2.16,0,3.13,1.08,3.13,3.43v7.96h2.02v-8.18c0-3.43-1.84-4.91-4.67-4.91
		c-2.3,0-3.7,1.03-4.29,2.16l-0.03-0.03l-0.08-1.86H483.73z M478.33,124.32h-7.05c0.19-3.24,2.19-4,3.81-4
		C477.68,120.32,478.31,122.02,478.33,124.32 M475.44,132.12c1.65,0,3.32-0.4,4.21-0.86l0.19-1.75h-0.11
		c-0.97,0.54-2.81,0.92-4.08,0.92c-3.11,0-4.35-1.7-4.4-4.62h9.05v-1.05c0-3.94-1.54-5.99-5.18-5.99c-3.59,0-5.97,2.32-5.97,6.64
		C469.15,129.83,471.2,132.12,475.44,132.12 M464.45,115.95c0.86,0,1.32-0.51,1.32-1.46c0-0.97-0.46-1.49-1.32-1.49
		c-0.84,0-1.32,0.51-1.32,1.49C463.13,115.43,463.59,115.95,464.45,115.95 M463.83,120.67v11.18h2v-12.82h-4v1.65H463.83z
		 M456.38,132.12c1.19,0,2.81-0.27,3.7-0.73l0.14-1.7h-0.08c-1.11,0.49-2.16,0.73-3.56,0.73c-2.86,0-4.18-1.81-4.18-5.05
		c0-3.43,1.54-4.94,4.16-4.94c1.08,0,2.35,0.22,3.46,0.67h0.08l-0.16-1.75c-0.86-0.35-2.3-0.59-3.46-0.59
		c-4.21,0-6.13,2.67-6.13,6.64C450.33,129.15,451.85,132.12,456.38,132.12 M441.56,132.12c4.81,0,6.29-3,6.29-5.48
		c0-6.56-8.83-4.91-8.83-9.61c0-1.49,0.89-3.08,3.78-3.08c1.08,0,2.86,0.3,4.08,0.81h0.08l-0.22-1.86c-1.05-0.46-2.75-0.73-4-0.73
		c-4.27,0-5.78,2.62-5.78,5.02c0,6.26,8.83,4.59,8.83,9.59c0,2.11-1.35,3.59-4.35,3.59c-1.35,0-3.24-0.38-4.59-1.08h-0.11l0.22,1.92
		C437.78,131.69,439.8,132.12,441.56,132.12 M422.74,119.03v12.82h2.02v-7.56c0-1.57,1.19-3.54,3.62-3.54c0.46,0,1,0.05,1.54,0.22
		h0.11l-0.22-2c-0.51-0.14-1-0.22-1.43-0.22c-1.97,0-3.24,1.4-3.7,2.65l-0.03-0.03l-0.11-2.35H422.74z M417.34,124.32h-7.05
		c0.19-3.24,2.19-4,3.81-4C416.69,120.32,417.31,122.02,417.34,124.32 M414.45,132.12c1.65,0,3.32-0.4,4.21-0.86l0.19-1.75h-0.11
		c-0.97,0.54-2.81,0.92-4.08,0.92c-3.11,0-4.35-1.7-4.4-4.62h9.05v-1.05c0-3.94-1.54-5.99-5.18-5.99c-3.59,0-5.97,2.32-5.97,6.64
		C408.16,129.83,410.21,132.12,414.45,132.12 M403.76,132.12c0.76,0,2.02-0.22,2.62-0.51l0.19-1.62h-0.11
		c-0.76,0.24-1.57,0.43-2.27,0.43c-1.38,0-1.86-0.4-1.86-2.16v-7.67h3.73l-0.16-1.57h-3.56v-4.08l-2.03,0.54v3.54h-2.29v1.57h2.29
		v8.1C400.3,130.74,401.06,132.12,403.76,132.12 M389.29,132.12c2.3,0,3.65-0.94,4.24-2.05h0.03l0.14,1.78h1.84v-12.82h-2.02v7.94
		c0,1.94-1.24,3.46-3.73,3.46c-2.08,0-2.92-1.08-2.92-3.43v-7.96h-2.02v8.34C384.83,130.72,386.43,132.12,389.29,132.12
		 M375.3,130.45c-1.57,0-2.75-0.7-3.38-1.32v-5.35c0-2.05,1.48-3.35,3.7-3.35c2.86,0,3.75,2.21,3.75,4.72
		C379.38,128.12,378.16,130.45,375.3,130.45 M369.9,119.03v17.5h2.02v-5.59c0.73,0.65,2.05,1.19,3.62,1.19
		c3.62,0,5.91-2.62,5.91-7.21c0-4.48-2.43-6.16-5.27-6.16c-2.24,0-3.48,0.84-4.29,2.03h-0.03l-0.13-1.75H369.9z M346.82,119.03
		v12.82h2.02v-8.05c0-1.86,1.3-3.35,3.51-3.35c1.94,0,2.86,1.08,2.86,3.43v7.96h2.02v-8.05c0-1.86,1.3-3.35,3.51-3.35
		c1.94,0,2.89,1.08,2.89,3.43v7.96h2.02v-8.18c0-3.43-1.78-4.91-4.43-4.91c-2.02,0-3.56,0.86-4.43,2.43c-0.67-1.7-2.11-2.43-4-2.43
		c-2.11,0-3.43,1-4.02,2.11h-0.03l-0.08-1.84H346.82z M337.18,130.45c-2.43,0-3.97-1.38-3.97-4.99c0-3.48,1.7-5.02,4.05-5.02
		c2.75,0,3.91,1.73,3.91,4.99C341.17,128.8,339.64,130.45,337.18,130.45 M337.04,132.12c4.4,0,6.26-2.97,6.26-6.86
		c0-3.73-1.62-6.51-5.86-6.51c-4.1,0-6.35,2.65-6.35,6.75C331.1,129.12,332.67,132.12,337.04,132.12 M323.35,132.12
		c1.92,0,3.91-0.46,4.91-0.86l0.16-1.89h-0.11c-1.24,0.51-2.92,0.92-4.59,0.92c-5.21,0-6.75-4.1-6.75-8.1c0-5.32,2.7-8.15,6.78-8.15
		c1.67,0,3.54,0.43,4.62,0.84h0.11l-0.24-1.92c-0.89-0.32-2.54-0.78-4.56-0.78c-6.1,0-8.88,4.78-8.88,10.21
		C314.8,127.34,317.14,132.12,323.35,132.12"/>
</g>
<polygon class="st0" points="126.8,50.3 155.57,50.3 155.57,59.32 146.76,59.32 146.76,82.37 135.68,82.37 135.68,59.32 
	126.8,59.32 "/>
<rect x="109.12" y="50.3" class="st0" width="11.08" height="32.07"/>
<polygon class="st0" points="99.28,50.3 83.73,50.3 78.29,72.39 78.15,72.39 72.37,50.3 56.89,50.3 56.89,82.37 66.45,82.37 
	66.45,60.28 66.87,60.28 72.58,82.37 83.52,82.37 89.23,60.28 89.51,60.28 89.51,82.37 99.28,82.37 "/>
<polygon class="st0" points="251.15,199.7 280.54,191.51 287.21,161.85 251.15,161.85 "/>
<polygon class="st0" points="251.15,54.22 251.15,111.27 270.63,111.27 270.63,146.71 290.61,146.71 307.24,72.73 "/>
<path class="st1" d="M212.27,76.11c-15.69,0-29.11,3.23-35.03,7.71l-10.17,27.46h21.75l18.44,50.58H186.9l-2.2-7.57h-14.24
	l-2.2,7.57h-19.9l-7.92,21.4c5.44,5.64,23.05,10.05,44.59,10.05c20.23,0,51.61-4.13,66.13-9.77V83.88
	C246.13,80.24,230.1,76.11,212.27,76.11z M243.19,123.66h-6.88v25.8h6.88v12.39h-33.1v-12.39h6.88v-25.8l-6.88,0.07v-12.46h33.1
	V123.66z M177.61,125.72l4.34,16.52H173l4.4-16.52H177.61z"/>
<path class="st2" d="M171.77,98.6L50.76,90.63l5.2,36.55c3.04-10.17,11.82-17.21,28.66-17.21c5.44,0,11.08,0.96,13.9,1.72v14.66
	c-1.79-0.55-6.67-1.24-10.87-1.24c-7.29,0-12.73,2.61-12.73,11.22c0,9.63,6.88,11.77,13.62,11.77c3.58,0,5.71-0.21,9.98-1.24v14.31
	c-4.89,1.44-8.53,1.93-14.38,1.93c-12.29,0-19.97-3.6-24.4-9.33l5.41,38.02l78.11-16.16L171.77,98.6z M104.99,160.96v-14.31
	c3.78,1.45,9.57,2.41,15.28,2.41c4.89,0,6.81-0.62,6.81-3.03c0-2-1.58-2.41-6.81-3.3c-7.29-1.24-15.55-3.1-15.55-14.86
	c0-11.01,7.36-17.89,23.54-17.89c7.43,0,14.79,1.38,17.41,2.2v13.14c-5.37-1.17-10.12-1.86-15-1.86c-2.41,0-5.51,0.21-5.51,2.55
	c0,2.07,1.79,2.48,8.26,3.79c8.05,1.65,14.24,4.27,14.24,14.38c0,8.88-5.44,18.92-24.43,18.92
	C116.14,163.09,107.88,161.92,104.99,160.96z"/>
</svg>
