<?xml version="1.0" encoding="utf-8"?>
<!-- Generator: Adobe Illustrator 26.0.2, SVG Export Plug-In . SVG Version: 6.00 Build 0)  -->
<svg version="1.1" id="Layer_1" xmlns="http://www.w3.org/2000/svg" xmlns:xlink="http://www.w3.org/1999/xlink" x="0px" y="0px"
	 viewBox="0 0 358 326.19" style="enable-background:new 0 0 358 326.19;" xml:space="preserve">
<style type="text/css">
	.st0{fill:#888B8D;}
	.st1{fill:#F4B223;}
	.st2{fill:#BC4700;}
</style>
<g>
	<path class="st0" d="M209.33,274.5c1.41,0,1.83-0.84,2.46-2.74l2.38-7.11h-1.15l-1.88,6.01l-1.96-6.01h-1.25l2.5,7.1h0.28
		c-0.46,1.41-0.72,1.84-1.54,1.84c-0.39,0-0.75-0.04-1.11-0.19h-0.04l0.06,0.88C208.32,274.4,208.8,274.5,209.33,274.5
		 M203.43,264.65v7.12h1.12v-4.2c0-0.87,0.66-1.97,2.01-1.97c0.25,0,0.55,0.03,0.85,0.12h0.06l-0.12-1.11
		c-0.29-0.08-0.56-0.12-0.79-0.12c-1.1,0-1.8,0.78-2.06,1.47l-0.01-0.02l-0.06-1.3H203.43z M198.08,270.99
		c-1.35,0-2.21-0.77-2.21-2.78c0-1.94,0.94-2.79,2.25-2.79c1.53,0,2.18,0.96,2.18,2.78C200.3,270.08,199.44,270.99,198.08,270.99
		 M198,271.92c2.44,0,3.48-1.65,3.48-3.81c0-2.07-0.9-3.61-3.25-3.61c-2.28,0-3.53,1.47-3.53,3.75
		C194.7,270.26,195.57,271.92,198,271.92 M192.26,271.92c0.42,0,1.12-0.12,1.46-0.28l0.1-0.9h-0.06c-0.42,0.13-0.87,0.24-1.26,0.24
		c-0.76,0-1.04-0.23-1.04-1.2v-4.26h2.07l-0.09-0.87h-1.98v-2.27l-1.12,0.3v1.97h-1.28v0.87h1.28v4.5
		C190.34,271.16,190.76,271.92,192.26,271.92 M184.46,271.05c-0.85,0-1.41-0.27-1.41-1.2c0-0.83,0.57-1.32,1.94-1.38l1.5-0.06v1.04
		C186.49,270.3,185.7,271.05,184.46,271.05 M184.17,271.92c1.08,0,1.98-0.42,2.45-1.14c0.04,0.67,0.4,1.11,1.08,1.11
		c0.38,0,0.74-0.07,0.91-0.15l0.06-0.81c-0.18,0.06-0.42,0.09-0.57,0.09c-0.39,0-0.49-0.2-0.49-0.81v-3.44
		c0-1.92-1.23-2.28-2.64-2.28c-0.68,0-1.71,0.15-2.31,0.33l-0.08,0.94h0.06c0.6-0.19,1.56-0.34,2.13-0.34c0.9,0,1.7,0.11,1.7,1.41
		v0.76l-1.55,0.08c-1.86,0.11-3.03,0.66-3.03,2.24C181.9,271.19,182.67,271.92,184.17,271.92 M177.35,264.65v7.12h1.12v-4.2
		c0-0.87,0.66-1.97,2.01-1.97c0.25,0,0.55,0.03,0.85,0.12h0.06l-0.12-1.11c-0.29-0.08-0.56-0.12-0.79-0.12
		c-1.1,0-1.8,0.78-2.05,1.47l-0.02-0.02l-0.06-1.3H177.35z M171.99,270.99c-1.35,0-2.21-0.77-2.21-2.78c0-1.94,0.95-2.79,2.25-2.79
		c1.53,0,2.18,0.96,2.18,2.78C174.21,270.08,173.36,270.99,171.99,270.99 M171.92,271.92c2.44,0,3.48-1.65,3.48-3.81
		c0-2.07-0.9-3.61-3.25-3.61c-2.28,0-3.52,1.47-3.52,3.75C168.62,270.26,169.49,271.92,171.92,271.92 M163.71,270.98
		c-0.86,0-1.53-0.49-1.88-0.92v-2.79c0-1.14,0.85-1.86,2.06-1.86c1.61,0,2.1,1.26,2.1,2.63
		C165.99,269.73,165.3,270.98,163.71,270.98 M163.86,271.92c2.01,0,3.28-1.41,3.28-3.94c0-2.49-1.36-3.48-2.94-3.48
		c-1.18,0-1.95,0.43-2.34,1.08l-0.03-0.03v-4.56h-1.11v10.78h0.96l0.07-0.75C162.18,271.55,162.99,271.92,163.86,271.92
		 M155.04,271.05c-0.86,0-1.41-0.27-1.41-1.2c0-0.83,0.57-1.32,1.94-1.38l1.5-0.06v1.04C157.07,270.3,156.29,271.05,155.04,271.05
		 M154.76,271.92c1.08,0,1.98-0.42,2.45-1.14c0.04,0.67,0.4,1.11,1.08,1.11c0.38,0,0.74-0.07,0.92-0.15l0.06-0.81
		c-0.18,0.06-0.42,0.09-0.57,0.09c-0.39,0-0.49-0.2-0.49-0.81v-3.44c0-1.92-1.23-2.28-2.64-2.28c-0.68,0-1.71,0.15-2.31,0.33
		l-0.07,0.94h0.06c0.6-0.19,1.56-0.34,2.13-0.34c0.9,0,1.7,0.11,1.7,1.41v0.76l-1.55,0.08c-1.86,0.11-3.03,0.66-3.03,2.24
		C152.48,271.19,153.26,271.92,154.76,271.92 M145.18,260.99v10.78h6.06v-0.97h-4.89v-9.81H145.18z M244.33,249.59h-3.92
		c0.11-1.8,1.22-2.22,2.12-2.22C243.97,247.37,244.31,248.31,244.33,249.59 M242.72,253.92c0.92,0,1.85-0.22,2.34-0.48l0.1-0.97
		h-0.06c-0.54,0.3-1.56,0.51-2.26,0.51c-1.73,0-2.42-0.95-2.45-2.57h5.02v-0.58c0-2.19-0.85-3.33-2.88-3.33
		c-2,0-3.31,1.29-3.31,3.69C239.23,252.65,240.36,253.92,242.72,253.92 M235.86,253.92c0.66,0,1.56-0.15,2.06-0.4l0.07-0.94h-0.04
		c-0.62,0.27-1.2,0.4-1.98,0.4c-1.59,0-2.32-1.01-2.32-2.81c0-1.91,0.85-2.75,2.31-2.75c0.6,0,1.31,0.12,1.92,0.38h0.05l-0.09-0.97
		c-0.48-0.19-1.27-0.33-1.92-0.33c-2.34,0-3.4,1.48-3.4,3.69C232.51,252.27,233.34,253.92,235.86,253.92 M224.53,246.65v7.12h1.12
		v-4.47c0-1.04,0.72-1.86,2.09-1.86c1.2,0,1.74,0.6,1.74,1.9v4.43h1.12v-4.54c0-1.9-1.02-2.73-2.59-2.73c-1.27,0-2.05,0.57-2.38,1.2
		l-0.01-0.01l-0.05-1.03H224.53z M221.53,249.59h-3.92c0.1-1.8,1.21-2.22,2.12-2.22C221.17,247.37,221.51,248.31,221.53,249.59
		 M219.92,253.92c0.91,0,1.85-0.22,2.34-0.48l0.11-0.97h-0.06c-0.54,0.3-1.56,0.51-2.26,0.51c-1.73,0-2.42-0.95-2.45-2.57h5.02
		v-0.58c0-2.19-0.85-3.33-2.88-3.33c-2,0-3.32,1.29-3.32,3.69C216.43,252.65,217.56,253.92,219.92,253.92 M211.4,252.93
		c-1.4,0-2.12-0.95-2.12-2.67c0-2.13,1.04-2.84,2.21-2.84c0.82,0,1.49,0.33,1.92,0.84v2.87C213.41,252.15,212.6,252.93,211.4,252.93
		 M211.36,256.5c1.72,0,3.18-0.7,3.18-2.94v-6.91h-1l-0.06,0.64c-0.45-0.43-1.14-0.79-2.12-0.79c-2.16,0-3.24,1.75-3.24,3.7
		c0,2.6,1.23,3.64,3.1,3.64c1.19,0,1.88-0.58,2.16-1.06l0.03,0.02v0.79c0,1.34-0.63,2-2.21,2c-0.84,0-1.86-0.27-2.46-0.51h-0.04
		l0.12,0.99C209.42,256.31,210.44,256.5,211.36,256.5 M205.51,244.94c0.48,0,0.73-0.29,0.73-0.81c0-0.54-0.26-0.82-0.73-0.82
		c-0.46,0-0.73,0.29-0.73,0.82C204.77,244.65,205.03,244.94,205.51,244.94 M205.16,247.56v6.21h1.11v-7.12h-2.22v0.91H205.16z
		 M201.32,243.92v9.85h1.11v-10.78h-2.11v0.93H201.32z M197.77,243.92v9.85h1.11v-10.78h-2.11v0.93H197.77z M194.75,249.59h-3.92
		c0.1-1.8,1.21-2.22,2.12-2.22C194.39,247.37,194.74,248.31,194.75,249.59 M193.15,253.92c0.92,0,1.85-0.22,2.34-0.48l0.1-0.97
		h-0.06c-0.54,0.3-1.56,0.51-2.26,0.51c-1.73,0-2.42-0.95-2.45-2.57h5.02v-0.58c0-2.19-0.85-3.33-2.88-3.33
		c-2,0-3.31,1.29-3.31,3.69C189.65,252.65,190.79,253.92,193.15,253.92 M187.2,253.92c0.42,0,1.12-0.12,1.46-0.28l0.1-0.9h-0.06
		c-0.42,0.14-0.87,0.24-1.26,0.24c-0.77,0-1.04-0.23-1.04-1.2v-4.26h2.07l-0.09-0.87h-1.98v-2.26l-1.12,0.3v1.96h-1.28v0.87h1.28
		v4.5C185.29,253.16,185.71,253.92,187.2,253.92 M176.59,246.65v7.12h1.12v-4.47c0-1.04,0.72-1.86,2.09-1.86
		c1.2,0,1.74,0.6,1.74,1.9v4.43h1.12v-4.54c0-1.9-1.02-2.73-2.59-2.73c-1.27,0-2.05,0.57-2.38,1.2l-0.01-0.01l-0.05-1.03H176.59z
		 M169.06,252.78v0.99h5.34v-0.99h-2.08v-8.81h2.08v-0.99h-5.34v0.99h2.09v8.81H169.06z M162.8,243.92v9.85h1.11v-10.78h-2.11v0.93
		H162.8z M157.12,253.05c-0.86,0-1.41-0.27-1.41-1.2c0-0.83,0.57-1.32,1.94-1.38l1.5-0.06v1.04
		C159.14,252.3,158.36,253.05,157.12,253.05 M156.83,253.92c1.08,0,1.98-0.42,2.45-1.14c0.05,0.67,0.4,1.11,1.08,1.11
		c0.38,0,0.74-0.07,0.92-0.15l0.06-0.81c-0.18,0.06-0.42,0.09-0.57,0.09c-0.39,0-0.49-0.19-0.49-0.81v-3.44
		c0-1.92-1.23-2.28-2.64-2.28c-0.67,0-1.71,0.15-2.31,0.33l-0.07,0.94h0.06c0.6-0.19,1.56-0.34,2.13-0.34c0.9,0,1.7,0.11,1.7,1.41
		v0.76l-1.55,0.07c-1.86,0.1-3.03,0.66-3.03,2.24C154.55,253.19,155.33,253.92,156.83,253.92 M152.03,244.94
		c0.48,0,0.73-0.29,0.73-0.81c0-0.54-0.25-0.82-0.73-0.82c-0.46,0-0.73,0.29-0.73,0.82C151.3,244.65,151.55,244.94,152.03,244.94
		 M151.69,247.56v6.21h1.11v-7.12h-2.22v0.91H151.69z M147.55,253.92c0.66,0,1.56-0.15,2.05-0.4l0.08-0.94h-0.05
		c-0.61,0.27-1.2,0.4-1.98,0.4c-1.59,0-2.32-1.01-2.32-2.81c0-1.91,0.85-2.75,2.31-2.75c0.6,0,1.3,0.12,1.92,0.38h0.04l-0.09-0.97
		c-0.48-0.19-1.27-0.33-1.92-0.33c-2.34,0-3.4,1.48-3.4,3.69C144.19,252.27,145.03,253.92,147.55,253.92 M141.61,244.94
		c0.48,0,0.73-0.29,0.73-0.81c0-0.54-0.26-0.82-0.73-0.82c-0.47,0-0.72,0.29-0.72,0.82C140.89,244.65,141.13,244.94,141.61,244.94
		 M136.33,247.52v6.26h1.11v-6.26h3.62v6.26h1.12v-7.12h-4.74v-1.52c0-0.9,0.34-1.29,1.14-1.29c0.33,0,0.6,0.03,1.08,0.18h0.05
		l-0.08-0.94c-0.32-0.11-0.77-0.2-1.23-0.2c-1.04,0-2.07,0.45-2.07,2.05v1.71h-1.17v0.87H136.33z M132.91,244.94
		c0.48,0,0.73-0.29,0.73-0.81c0-0.54-0.26-0.82-0.73-0.82c-0.46,0-0.73,0.29-0.73,0.82C132.17,244.65,132.43,244.94,132.91,244.94
		 M132.56,247.56v6.21h1.11v-7.12h-2.22v0.91H132.56z M129.26,253.92c0.42,0,1.12-0.12,1.46-0.28l0.1-0.9h-0.06
		c-0.42,0.14-0.87,0.24-1.26,0.24c-0.76,0-1.03-0.23-1.03-1.2v-4.26h2.07l-0.09-0.87h-1.98v-2.26l-1.12,0.3v1.96h-1.28v0.87h1.28
		v4.5C127.34,253.16,127.76,253.92,129.26,253.92 M121.61,246.65v7.12h1.12v-4.2c0-0.87,0.66-1.97,2.01-1.97
		c0.25,0,0.56,0.03,0.85,0.12h0.06l-0.12-1.11c-0.28-0.07-0.56-0.12-0.79-0.12c-1.1,0-1.8,0.78-2.06,1.47l-0.01-0.01l-0.06-1.3
		H121.61z M117.5,249.71h-3.84l1.92-5.61L117.5,249.71z M114.94,242.99l-3.82,10.78h1.21l1.05-3.12h4.41l1.06,3.12h1.23l-3.82-10.78
		H114.94z M238.08,235.92c3.14,0,4.46-1.5,4.46-4.02v-1.62h1.51l-0.12-0.94h-1.43l-0.11-1.16h-0.99v3.42c0,1.93-0.55,3.32-3.17,3.32
		c-1.66,0-2.9-0.78-2.9-2.27c0-1.59,1.38-2.37,3-2.37h1.35l-0.14-0.94h-1.16c-1.35,0-2.49-0.67-2.49-1.83
		c0-1.26,0.88-1.71,2.07-1.71c0.66,0,1.49,0.09,2.4,0.52h0.06l-0.12-1.03c-0.54-0.24-1.54-0.45-2.36-0.45
		c-2.17,0-3.19,1.21-3.19,2.56c0,1.23,0.76,2.04,1.95,2.37c-1.26,0.21-2.5,1.2-2.5,2.88C234.21,234.86,235.85,235.92,238.08,235.92
		 M228.46,231.59h-3.92c0.1-1.8,1.21-2.22,2.12-2.22C228.09,229.37,228.44,230.31,228.46,231.59 M226.85,235.92
		c0.92,0,1.85-0.23,2.34-0.48l0.1-0.97h-0.06c-0.54,0.3-1.56,0.51-2.26,0.51c-1.73,0-2.42-0.95-2.45-2.57h5.02v-0.58
		c0-2.19-0.85-3.33-2.88-3.33c-2,0-3.31,1.29-3.31,3.69C223.36,234.65,224.49,235.92,226.85,235.92 M219.99,235.92
		c0.66,0,1.56-0.15,2.05-0.4l0.07-0.94h-0.04c-0.62,0.27-1.2,0.41-1.98,0.41c-1.59,0-2.32-1.01-2.32-2.81
		c0-1.91,0.85-2.75,2.31-2.75c0.6,0,1.3,0.12,1.92,0.38h0.04l-0.09-0.97c-0.48-0.19-1.28-0.33-1.92-0.33c-2.34,0-3.4,1.48-3.4,3.69
		C216.64,234.27,217.47,235.92,219.99,235.92 M208.66,228.65v7.12h1.12v-4.47c0-1.04,0.72-1.86,2.09-1.86c1.2,0,1.74,0.6,1.74,1.9
		v4.43h1.12v-4.55c0-1.9-1.02-2.73-2.59-2.73c-1.27,0-2.05,0.57-2.38,1.2l-0.01-0.01l-0.04-1.03H208.66z M205.66,231.59h-3.92
		c0.1-1.8,1.22-2.22,2.12-2.22C205.3,229.37,205.64,230.31,205.66,231.59 M204.05,235.92c0.91,0,1.84-0.23,2.34-0.48l0.1-0.97h-0.06
		c-0.54,0.3-1.56,0.51-2.26,0.51c-1.73,0-2.42-0.95-2.45-2.57h5.02v-0.58c0-2.19-0.85-3.33-2.88-3.33c-2,0-3.31,1.29-3.31,3.69
		C200.56,234.65,201.69,235.92,204.05,235.92 M197.94,226.94c0.48,0,0.73-0.29,0.73-0.81c0-0.54-0.26-0.82-0.73-0.82
		c-0.46,0-0.73,0.28-0.73,0.82C197.21,226.65,197.47,226.94,197.94,226.94 M197.6,229.56v6.21h1.11v-7.12h-2.22v0.91H197.6z
		 M193.46,235.92c0.66,0,1.56-0.15,2.05-0.4l0.07-0.94h-0.04c-0.61,0.27-1.2,0.41-1.98,0.41c-1.59,0-2.32-1.01-2.32-2.81
		c0-1.91,0.85-2.75,2.31-2.75c0.6,0,1.31,0.12,1.92,0.38h0.04l-0.09-0.97c-0.48-0.19-1.27-0.33-1.92-0.33c-2.34,0-3.4,1.48-3.4,3.69
		C190.1,234.27,190.94,235.92,193.46,235.92 M185.22,235.92c2.67,0,3.49-1.66,3.49-3.04c0-3.64-4.9-2.73-4.9-5.34
		c0-0.83,0.49-1.71,2.1-1.71c0.6,0,1.59,0.16,2.26,0.45h0.04l-0.12-1.03c-0.58-0.25-1.53-0.4-2.22-0.4c-2.37,0-3.21,1.45-3.21,2.79
		c0,3.48,4.9,2.55,4.9,5.33c0,1.17-0.75,2-2.42,2c-0.75,0-1.8-0.21-2.55-0.6h-0.06l0.12,1.06
		C183.12,235.68,184.25,235.92,185.22,235.92 M174.77,228.65v7.12h1.12v-4.2c0-0.87,0.66-1.97,2.01-1.97c0.25,0,0.55,0.03,0.85,0.12
		h0.06l-0.12-1.11c-0.28-0.08-0.55-0.12-0.79-0.12c-1.1,0-1.8,0.78-2.06,1.47l-0.01-0.01l-0.06-1.3H174.77z M171.77,231.59h-3.92
		c0.11-1.8,1.22-2.22,2.12-2.22C171.41,229.37,171.76,230.31,171.77,231.59 M170.16,235.92c0.92,0,1.85-0.23,2.34-0.48l0.11-0.97
		h-0.06c-0.54,0.3-1.56,0.51-2.27,0.51c-1.72,0-2.42-0.95-2.45-2.57h5.02v-0.58c0-2.19-0.85-3.33-2.88-3.33
		c-2,0-3.31,1.29-3.31,3.69C166.67,234.65,167.81,235.92,170.16,235.92 M164.22,235.92c0.42,0,1.12-0.12,1.46-0.28l0.1-0.9h-0.06
		c-0.42,0.13-0.87,0.24-1.26,0.24c-0.77,0-1.04-0.23-1.04-1.2v-4.26h2.07l-0.09-0.87h-1.98v-2.26l-1.12,0.3v1.97h-1.28v0.87h1.28
		v4.5C162.31,235.16,162.72,235.92,164.22,235.92 M156.18,235.92c1.27,0,2.02-0.52,2.35-1.14h0.02l0.07,0.99h1.02v-7.12h-1.12v4.41
		c0,1.08-0.69,1.92-2.07,1.92c-1.15,0-1.62-0.6-1.62-1.91v-4.42h-1.12v4.63C153.71,235.14,154.59,235.92,156.18,235.92
		 M148.42,234.99c-0.87,0-1.53-0.39-1.88-0.74v-2.97c0-1.14,0.83-1.86,2.06-1.86c1.59,0,2.09,1.23,2.09,2.63
		C150.68,233.7,150.01,234.99,148.42,234.99 M145.42,228.65v9.72h1.12v-3.1c0.4,0.36,1.14,0.66,2.01,0.66c2.01,0,3.28-1.45,3.28-4
		c0-2.49-1.35-3.42-2.92-3.42c-1.24,0-1.93,0.46-2.38,1.12h-0.01l-0.08-0.97H145.42z M132.59,228.65v7.12h1.12v-4.47
		c0-1.04,0.72-1.86,1.95-1.86c1.08,0,1.59,0.6,1.59,1.9v4.43h1.12v-4.47c0-1.04,0.72-1.86,1.95-1.86c1.08,0,1.61,0.6,1.61,1.9v4.43
		h1.12v-4.55c0-1.9-0.99-2.73-2.46-2.73c-1.13,0-1.98,0.48-2.46,1.35c-0.37-0.94-1.17-1.35-2.22-1.35c-1.17,0-1.9,0.55-2.23,1.17
		h-0.01l-0.04-1.02H132.59z M127.24,234.99c-1.35,0-2.21-0.76-2.21-2.78c0-1.94,0.94-2.79,2.25-2.79c1.53,0,2.18,0.96,2.18,2.78
		C129.46,234.08,128.6,234.99,127.24,234.99 M127.16,235.92c2.45,0,3.48-1.65,3.48-3.81c0-2.07-0.9-3.61-3.25-3.61
		c-2.28,0-3.52,1.47-3.52,3.75C123.86,234.26,124.73,235.92,127.16,235.92 M119.55,235.92c1.06,0,2.17-0.26,2.73-0.48l0.09-1.05
		h-0.06c-0.69,0.29-1.62,0.51-2.55,0.51c-2.9,0-3.75-2.28-3.75-4.5c0-2.96,1.5-4.53,3.76-4.53c0.93,0,1.96,0.24,2.56,0.46h0.06
		l-0.14-1.06c-0.5-0.18-1.41-0.43-2.54-0.43c-3.39,0-4.93,2.65-4.93,5.67C114.8,233.27,116.1,235.92,119.55,235.92 M126.8,50.3
		h28.76v9.02h-8.81v23.05h-11.08V59.32h-8.88V50.3z M120.2,50.3h-11.08v32.07h11.08V50.3z M99.28,50.3H83.72l-5.44,22.09h-0.14
		L72.37,50.3H56.89v32.07h9.57V60.28h0.41l5.71,22.09h10.94l5.71-22.09h0.28v22.09h9.77V50.3z M251.15,199.7l29.38-8.19l6.67-29.66
		h-36.05V199.7z M251.15,54.22v57.05h19.47v35.44h19.98l16.63-73.98L251.15,54.22z"/>
	<path class="st1" d="M212.27,76.11c-15.69,0-29.11,3.23-35.03,7.71l-10.17,27.46h21.75l18.44,50.58H186.9l-2.2-7.57h-14.24
		l-2.2,7.57h-19.9l-7.92,21.4c5.44,5.64,23.05,10.05,44.59,10.05c20.23,0,51.61-4.13,66.13-9.77V83.88
		C246.13,80.24,230.1,76.11,212.27,76.11z M243.19,123.66h-6.88v25.8h6.88v12.39h-33.1v-12.39h6.88v-25.8l-6.88,0.07v-12.46h33.1
		V123.66z M177.61,125.72l4.34,16.52H173l4.4-16.52H177.61z"/>
	<path class="st2" d="M171.77,98.6L50.76,90.63l5.2,36.55c3.04-10.17,11.82-17.21,28.66-17.21c5.44,0,11.08,0.96,13.9,1.72v14.66
		c-1.79-0.55-6.67-1.24-10.87-1.24c-7.29,0-12.73,2.61-12.73,11.22c0,9.63,6.88,11.77,13.62,11.77c3.58,0,5.71-0.21,9.98-1.24v14.31
		c-4.89,1.44-8.53,1.93-14.38,1.93c-12.29,0-19.97-3.6-24.4-9.33l5.41,38.02l78.11-16.16L171.77,98.6z M104.99,160.96v-14.31
		c3.78,1.45,9.57,2.41,15.28,2.41c4.89,0,6.81-0.62,6.81-3.03c0-2-1.58-2.41-6.81-3.3c-7.29-1.24-15.55-3.1-15.55-14.86
		c0-11.01,7.36-17.89,23.54-17.89c7.43,0,14.79,1.38,17.41,2.2v13.14c-5.37-1.17-10.12-1.86-15-1.86c-2.41,0-5.51,0.21-5.51,2.55
		c0,2.06,1.79,2.48,8.26,3.79c8.05,1.65,14.24,4.27,14.24,14.38c0,8.88-5.44,18.92-24.43,18.92
		C116.14,163.09,107.88,161.92,104.99,160.96z"/>
</g>
</svg>
